<svg viewBox="0 0 32 31.2291" xmlns="http://www.w3.org/2000/svg" xmlns:xlink="http://www.w3.org/1999/xlink" width="32.000000" height="31.229126" fill="none" customFrame="#000000">
	<g id="logo">
		<g id="icon">
			<path id="Vector" d="M32 15.6079C32.005 18.4487 31.2124 21.2365 29.7083 23.6681L27.1321 20.1449C27.749 18.7083 28.0656 17.1658 28.0634 15.6079C28.0634 14.8162 27.9822 14.0265 27.8212 13.2505C27.8057 13.1767 27.79 13.1051 27.7723 13.0335L27.7723 13.0074C27.7523 12.9292 27.7345 12.8489 27.7123 12.7708C27.69 12.6926 27.6811 12.6427 27.6633 12.5819C27.6234 12.4386 27.5833 12.2932 27.5367 12.1477L27.4966 12.0197L27.4767 11.9567C27.4322 11.8265 27.3855 11.6963 27.3366 11.5638C27.3033 11.4727 27.2677 11.3837 27.2321 11.2947C27.1965 11.2056 27.1587 11.1166 27.121 11.0298C27.0832 10.9429 27.0432 10.8539 27.0032 10.7671C26.9232 10.5935 26.8387 10.422 26.7475 10.2526C26.712 10.1789 26.672 10.1029 26.6297 10.0356C26.6297 10.0356 26.6187 10.0183 26.6142 10.0074C26.6097 9.99656 26.6142 10.0074 26.6142 9.99656C26.572 9.91622 26.5253 9.83588 26.4764 9.75555C26.4275 9.67521 26.3808 9.59277 26.3274 9.51025C26.2208 9.33662 26.1052 9.16291 25.9896 8.99365C25.3492 8.06897 24.5751 7.23982 23.6912 6.53196C23.6223 6.47552 23.5512 6.42124 23.4801 6.36698C23.409 6.31271 23.3111 6.23673 23.2244 6.17595C23.1378 6.11516 23.0688 6.0609 22.9911 6.0088C22.9132 5.9567 22.8465 5.90678 22.7688 5.85901C22.6843 5.8004 22.5977 5.74614 22.5087 5.69187L22.3264 5.57898L22.1464 5.47261C20.6013 4.58688 18.8745 4.04635 17.0901 3.88984C15.3057 3.73333 13.5079 3.96472 11.826 4.5674C10.9368 4.89085 9.07417 5.97841 9.00078 6.02833L6.7002 2.89156L6.99805 2.70053C7.77676 2.18249 8.6009 1.73283 9.46094 1.35682C11.6514 0.402968 14.0331 -0.0586613 16.4305 0.00595882C18.828 0.0705789 21.1801 0.659801 23.3133 1.7302C23.4645 1.80618 23.6134 1.88432 23.7579 1.96464L23.9802 2.09054L24.1891 2.21211L24.3959 2.33367C24.5426 2.42268 24.687 2.51385 24.8404 2.60719L25.0071 2.71572L25.2472 2.87854L25.4961 3.05654L25.6317 3.15422C25.7095 3.21284 25.7873 3.26928 25.854 3.33006C26.0563 3.48418 26.2541 3.64265 26.4475 3.80763C26.6409 3.97261 26.8298 4.13976 27.0165 4.31125L27.2899 4.57391C27.3811 4.66292 27.4699 4.75192 27.5589 4.84309C27.7278 5.01458 27.89 5.19041 28.0501 5.37059C28.119 5.44657 28.1857 5.52472 28.2502 5.6007C28.3147 5.67667 28.3835 5.75699 28.448 5.83731C28.5124 5.91763 28.5547 5.96538 28.6058 6.0305L28.7614 6.22805L28.9125 6.42993C28.977 6.51459 29.0393 6.59925 29.0993 6.68608C29.1593 6.77291 29.2193 6.85974 29.2793 6.94657C29.3127 6.99216 29.3416 7.03774 29.3727 7.08333C29.4038 7.12892 29.4371 7.17451 29.4638 7.22227L29.6083 7.43934C29.6772 7.54571 29.7439 7.65642 29.8083 7.76279C29.8728 7.86918 29.9017 7.92126 29.9461 8.00159C29.9906 8.08193 30.0395 8.16 30.084 8.24252L30.0951 8.26204C30.0987 8.27047 30.1031 8.27843 30.1085 8.28593C30.1114 8.29592 30.1159 8.30545 30.1218 8.31419C30.1269 8.32473 30.1328 8.33488 30.1395 8.34456L30.264 8.5812L30.2818 8.61375C30.3285 8.70494 30.3751 8.79605 30.4196 8.88724C30.4641 8.97842 30.5152 9.08913 30.5641 9.18898L30.6997 9.42991C30.7375 9.51243 30.7708 9.59277 30.8064 9.67521L30.8931 9.89233C30.9331 9.9893 30.9709 10.087 31.0064 10.1854C31.0188 10.2106 31.0291 10.2368 31.0376 10.2636C31.0798 10.3743 31.1198 10.4806 31.1576 10.5978C31.242 10.8388 31.3199 11.0841 31.3932 11.3316C31.4265 11.4466 31.4577 11.5617 31.4888 11.6788C31.491 11.6874 31.491 11.6964 31.4888 11.7049C31.5555 11.9546 31.6133 12.2064 31.6689 12.4603C31.6955 12.5863 31.7199 12.7122 31.7422 12.838C31.7422 12.838 31.7422 12.8706 31.7422 12.8902C31.7622 12.9987 31.78 13.1072 31.7978 13.2201C31.8156 13.333 31.8333 13.4697 31.8533 13.5914L31.8533 13.6109C31.8711 13.7411 31.8844 13.8735 31.9 14.0037C31.9245 14.2469 31.9445 14.49 31.9578 14.7375C31.9911 15.0283 32 15.3171 32 15.6079Z" fill="rgb(35,39,46)" fill-rule="evenodd" />
			<path id="Vector_2" d="M27.7013 26.2647C26.9741 27.0252 26.1706 27.7124 25.3029 28.3162C24.4352 28.9214 23.5081 29.4413 22.5355 29.8682C19.412 31.2318 15.9233 31.582 12.5812 30.8674C9.23899 30.1527 6.21924 28.4109 3.96499 25.8974C1.71075 23.3839 0.340629 20.2311 0.0556348 16.9014C-0.22936 13.5717 0.585772 10.2405 2.38145 7.39635C2.45258 7.2813 2.52815 7.17927 2.60373 7.05554C2.6793 6.9318 2.75488 6.83846 2.826 6.71906C3.10164 6.32832 3.398 5.95206 3.71512 5.59026C3.77514 5.51863 3.83738 5.44699 3.90406 5.37318C3.9337 5.33844 3.96482 5.30372 3.99742 5.26898C4.06633 5.19083 4.13746 5.11486 4.2197 5.03888L4.30194 4.95422L6.60475 8.12786L6.63366 8.16698C6.5803 8.2299 6.52696 8.29502 6.47806 8.36231C6.4231 8.42454 6.37189 8.48973 6.32469 8.55773C4.59936 10.8081 3.75532 13.5872 3.94513 16.3924C4.13494 19.1976 5.34608 21.8439 7.35963 23.8531C9.3732 25.8622 12.0563 27.1017 14.9239 27.3473C17.7917 27.5929 20.6547 26.8286 22.9957 25.1924L21.662 23.3667L19.3747 20.2408C20.2891 19.5999 20.9957 18.7162 21.4108 17.6945C21.7575 16.8307 21.883 15.8972 21.7763 14.9751C21.6696 14.0531 21.3341 13.1704 20.7987 12.4039C20.2632 11.6373 19.5443 11.0101 18.7042 10.5767C17.8642 10.1432 16.9284 9.91656 15.9783 9.91664C15.896 9.91664 15.8093 9.91664 15.7271 9.91664L15.716 9.91664C14.5967 9.96645 13.5162 10.333 12.6063 10.9716L10.3235 7.84353C11.2011 7.22908 12.1778 6.76242 13.2131 6.46291C14.1148 6.20059 15.0507 6.06751 15.9916 6.06783C16.285 6.06783 16.5718 6.08085 16.8563 6.10473C19.2879 6.31769 21.55 7.41108 23.1981 9.17004C24.8462 10.929 25.7611 13.2263 25.763 15.6106C25.763 17.5937 25.1289 19.5275 23.9492 21.1417L25.3452 23.0498L27.7013 26.2647Z" fill="rgb(0,89,255)" fill-rule="nonzero" />
			<path id="Vector_3" d="M19.3802 20.2281C18.7594 20.673 18.0543 20.9932 17.3058 21.17C16.5572 21.3466 15.7803 21.3765 15.0198 21.2577C14.2594 21.139 13.5308 20.8739 12.8761 20.478C12.2214 20.082 11.6537 19.5631 11.2059 18.9513C10.7582 18.3394 10.4393 17.6468 10.2678 16.9137C10.0962 16.1805 10.0754 15.4213 10.2067 14.6803C10.3378 13.9392 10.6183 13.231 11.032 12.5967C11.4457 11.9623 11.9841 11.4145 12.6163 10.985L19.3802 20.2281Z" fill="rgb(35,39,46)" fill-rule="evenodd" />
		</g>
	</g>
</svg>
