<svg viewBox="0 0 32 24.1039" xmlns="http://www.w3.org/2000/svg" xmlns:xlink="http://www.w3.org/1999/xlink" width="32.000000" height="24.103882" fill="none" customFrame="#000000">
	<defs>
		<filter id="pixso_custom_mask_type_alpha">
			<feColorMatrix type="matrix" values="0 0 0 0 1 0 0 0 0 1 0 0 0 0 1 0 0 0 1 0 " />
		</filter>
	</defs>
	<mask id="mask_0" width="32.000000" height="24.103895" x="0.000000" y="0.000000" maskUnits="userSpaceOnUse">
		<g filter="url(#pixso_custom_mask_type_alpha)">
			<g id="clip0_8_2">
				<rect id="Прямоугольник 5" width="32.000000" height="24.103895" x="0.000000" y="0.000000" fill="rgb(0,0,0)" />
			</g>
		</g>
	</mask>
	<g id="clip path group" mask="url(#mask_0)">
		<g id="Сочетание 4">
			<path id="Форма 2" d="M46.3984 7.48805L46.325 7.48805C45.6379 6.43246 44.5324 5.62207 42.7634 5.62207C39.6202 5.62207 37.3857 8.34829 37.3857 12.277C37.3857 16.2056 39.5468 18.9318 42.7149 18.9318C44.4825 18.9318 45.7362 18.1214 46.4718 16.9176L46.5203 16.9176L46.5203 18.5633L49.7369 18.5633L49.7369 1.00354L46.397 1.00354L46.397 7.48665L46.3984 7.48805ZM43.4505 16.1336C41.7314 16.1336 40.7741 14.7095 40.7741 12.2783C40.7741 9.84717 41.7078 8.32476 43.5489 8.32476C45.685 8.32476 46.4718 9.94554 46.4718 12.3518C46.4718 14.758 45.4398 16.1336 43.4505 16.1336Z" fill="rgb(0,0,0)" fill-rule="nonzero" />
			<path id="Форма 3" d="M56.2711 5.62207C52.5876 5.62207 50.0581 8.52008 50.0581 12.2534C50.0581 15.9867 52.4159 18.9332 56.5911 18.9332C59.8326 18.9332 61.8219 17.0423 62.2887 14.8079L58.9973 14.8079C58.6288 15.7651 57.8683 16.3552 56.5662 16.3552C54.6752 16.3552 53.5947 15.1514 53.3495 13.212L62.4855 13.212C62.4855 8.71817 60.3244 5.62346 56.2725 5.62346L56.2711 5.62207ZM53.3966 10.9028C53.6917 9.25705 54.5506 8.20146 56.3196 8.20146C57.842 8.20146 58.8976 9.30692 58.9959 10.9028L53.3966 10.9028Z" fill="rgb(0,0,0)" fill-rule="nonzero" />
			<path id="Форма 4" d="M69.0683 16.2555C67.0305 16.2555 66.0719 14.6596 66.0719 12.277C66.0719 9.89428 67.104 8.29843 69.1168 8.29843C70.3441 8.29843 71.2044 9.13376 71.4246 10.2392L74.6911 10.2392C74.2492 7.51298 72.235 5.62207 68.9685 5.62207C65.1368 5.62207 62.6821 8.52008 62.6821 12.277C62.6821 16.0338 65.1632 18.9319 69.1417 18.9319C72.5065 18.9319 74.5942 16.7957 74.8144 14.118L71.5978 14.118C71.3762 15.5421 70.4189 16.2541 69.0683 16.2541L69.0683 16.2555Z" fill="rgb(0,0,0)" fill-rule="nonzero" />
			<path id="Форма 5" d="M100.527 5.62207C98.8076 5.62207 97.6288 6.43246 96.8184 7.53791L96.745 7.53791L96.745 5.96562L90.2618 5.96562L88.4942 11.6383C88.1008 12.7923 87.7573 14.3895 87.7573 14.3895L87.7088 14.3895C87.7088 14.3895 87.2918 12.7937 86.8984 11.6383L85.0324 5.96562L81.5207 5.96562C80.0468 5.96562 79.0895 6.55575 78.3276 7.97982L78.2542 7.97982L78.2542 5.96562L75.0376 5.96562L75.0376 18.5634L78.3775 18.5634L78.3775 12.4238C78.3775 9.8541 80.3418 8.80822 82.453 8.94813C82.5763 8.95644 82.683 9.03956 82.7273 9.15454L84.9105 14.9298C85.6225 16.8456 85.8677 17.656 85.8677 18.3431C85.8677 19.3751 85.3275 20.0622 84.0018 20.0622L82.8229 20.0622L82.8229 22.6901L84.7872 22.6901C87.3417 22.6901 88.274 21.683 89.2326 18.8834L93.5297 6.25376L93.5297 22.6901L96.8696 22.6901L96.8696 17.1407L96.9181 17.1407C97.6302 18.2212 98.7841 18.9332 100.553 18.9332C103.795 18.9332 106.006 16.3552 106.006 12.2783C106.006 8.20146 103.869 5.62346 100.53 5.62346L100.527 5.62207ZM99.8397 16.1571C97.8504 16.1571 96.7948 14.6596 96.7948 12.3753C96.7948 10.091 97.6302 8.32337 99.7164 8.32337C101.803 8.32337 102.614 9.99263 102.614 12.3753C102.614 14.758 101.534 16.1571 99.8397 16.1571Z" fill="rgb(0,0,0)" fill-rule="nonzero" />
			<path id="Форма 6" d="M111.48 16.1087C110.743 16.1087 110.228 15.7887 110.228 14.8564L110.228 8.17655L112.389 8.17655L112.389 5.96564L110.228 5.96564L110.228 2.03699L106.961 2.03699L106.961 5.96564L105.217 5.96564L105.217 8.17655L106.961 8.17655L106.961 15.5684C106.961 17.9511 108.754 18.5897 110.375 18.5897C111.7 18.5897 112.462 18.5412 112.462 18.5412L112.462 16.0851C112.462 16.0851 111.897 16.11 111.48 16.11L111.48 16.1087Z" fill="rgb(0,0,0)" fill-rule="nonzero" />
			<path id="Форма 7" d="M7.80983 5.47932L8.65901 4.63014L4.77607 0.747192L3.92689 1.59637C-1.17926 6.70252 -1.17787 15.0129 3.92966 20.1204C9.03719 25.2279 17.3475 25.2293 22.4536 20.1232L23.3028 19.274L19.4199 15.3911L18.5707 16.2402C15.6048 19.2061 10.7799 19.2047 7.8126 16.2375C4.84533 13.2701 4.84533 8.4452 7.80983 5.47932Z" fill="rgb(0,0,0)" fill-rule="nonzero" />
			<path id="Форма 8" d="M24.1522 18.4234L23.303 19.2726L27.1859 23.1555L28.0351 22.3063C33.1412 17.2002 33.1399 8.88986 28.0323 3.78232C22.9248 -1.32521 14.6145 -1.3266 9.50836 3.77955L8.65918 4.62873L12.5421 8.51167L13.3913 7.6625C16.3572 4.69661 21.1821 4.69799 24.1494 7.66527C27.1167 10.6325 27.1167 15.4575 24.1522 18.4234Z" fill="rgb(0,0,0)" fill-rule="nonzero" />
		</g>
	</g>
</svg>
