<svg viewBox="0 0 450 391.732" xmlns="http://www.w3.org/2000/svg" xmlns:xlink="http://www.w3.org/1999/xlink" width="450.000000" height="391.732056" fill="none" customFrame="#000000">
	<path id="Форма 75" d="M0 280.501L0 391.732L169.264 391.732L169.264 367.065L24.663 367.065L24.663 280.501L0 280.501L0 280.501ZM425.336 280.501L425.336 367.065L280.736 367.065L280.736 391.726L450 391.726L450 280.501L425.336 280.501ZM169.511 111.231L169.511 280.495L280.736 280.495L280.736 258.25L194.172 258.25L194.172 111.231L169.511 111.231ZM0 0L0 111.231L24.663 111.231L24.663 24.662L169.265 24.662L169.265 0L0 0ZM280.736 0L280.736 24.662L425.336 24.662L425.336 111.231L450 111.231L450 0L280.736 0Z" fill="rgb(0,0,0)" fill-rule="nonzero" />
</svg>
