<svg width="25.000000" height="25.000000" viewBox="0 0 25 25" fill="none" xmlns="http://www.w3.org/2000/svg" xmlns:xlink="http://www.w3.org/1999/xlink">
	<desc>
			Created with Pixso.
	</desc>
	<defs/>
	<path id="path" d="M8.07 9.84L12.11 7.84L12.11 4.07C11.63 4 11.23 3.79 10.91 3.45L4.44 6.78C4.51 6.97 4.55 7.18 4.55 7.39C4.55 7.57 4.53 7.74 4.47 7.91L8.07 9.84ZM10.57 2.93C10.48 2.73 10.44 2.52 10.44 2.3C10.44 1.8 10.67 1.35 11.03 1.02C11.4 0.7 11.91 0.5 12.47 0.5C13.03 0.5 13.54 0.7 13.91 1.02C14.3 1.37 14.5 1.8 14.5 2.3C14.5 2.52 14.46 2.73 14.38 2.92L20.88 6.26C20.93 6.21 20.98 6.16 21.03 6.12C21.42 5.76 21.9 5.59 22.46 5.59C23.03 5.59 23.53 5.79 23.9 6.12C24.3 6.47 24.5 6.89 24.5 7.39C24.5 7.89 24.27 8.34 23.9 8.67C23.58 8.95 23.19 9.12 22.73 9.18L22.73 15.8C23.19 15.85 23.59 16.04 23.9 16.31C24.27 16.64 24.5 17.09 24.5 17.59C24.5 17.83 24.44 18.06 24.34 18.28C24.24 18.5 24.09 18.69 23.9 18.86C23.71 19.03 23.49 19.16 23.24 19.25C22.99 19.34 22.73 19.39 22.46 19.39C21.82 19.39 21.3 19.17 20.89 18.73L14.38 22.07C14.45 22.26 14.5 22.47 14.5 22.69C14.5 23.19 14.27 23.64 13.9 23.97C13.51 24.32 13.03 24.5 12.47 24.5C11.91 24.5 11.4 24.29 11.03 23.97C10.66 23.64 10.44 23.19 10.44 22.69C10.44 22.47 10.48 22.25 10.57 22.06L4.09 18.73C3.69 19.17 3.16 19.39 2.52 19.39C1.96 19.39 1.45 19.19 1.09 18.86C0.72 18.54 0.5 18.09 0.5 17.59C0.5 17.09 0.72 16.64 1.09 16.31C1.41 16.03 1.8 15.86 2.24 15.8L2.24 9.18C1.79 9.12 1.41 8.95 1.09 8.66C0.69 8.31 0.49 7.89 0.5 7.39C0.5 6.89 0.72 6.44 1.09 6.11C1.49 5.76 1.96 5.59 2.53 5.59C3.17 5.59 3.7 5.81 4.1 6.25L10.57 2.93ZM14.04 3.44C13.72 3.79 13.31 4 12.82 4.07L12.82 7.84L16.85 9.91L20.56 8.01C20.47 7.82 20.43 7.61 20.43 7.39C20.43 7.18 20.47 6.97 20.55 6.79L14.04 3.44ZM22.11 9.17C21.69 9.1 21.33 8.93 21.03 8.67C20.99 8.63 20.95 8.59 20.91 8.55L17.21 10.45L17.21 14.51L20.92 16.41C20.96 16.38 20.99 16.35 21.03 16.31C21.33 16.05 21.69 15.88 22.11 15.81L22.11 9.17ZM20.55 18.2C20.47 18.01 20.43 17.81 20.43 17.59C20.43 17.36 20.48 17.15 20.57 16.95L16.97 15.1L12.82 17.25L12.82 20.92C13.31 20.99 13.72 21.2 14.04 21.55L20.55 18.2ZM10.91 21.54C11.23 21.2 11.63 21 12.11 20.92L12.11 17.23L7.94 15.08L4.4 16.9C4.5 17.11 4.56 17.34 4.56 17.59C4.56 17.81 4.51 18.02 4.43 18.21L10.91 21.54ZM2.86 15.81C3.29 15.87 3.67 16.05 3.96 16.31C3.98 16.33 4 16.35 4.02 16.37L7.63 14.53L7.63 10.33L4.16 8.46C4.1 8.54 4.03 8.6 3.96 8.67C3.65 8.94 3.29 9.1 2.86 9.17L2.86 15.81ZM2.53 8.57C2.54 8.57 2.55 8.57 2.55 8.57C2.9 8.56 3.22 8.44 3.47 8.22C3.73 7.99 3.86 7.72 3.86 7.39C3.86 7.06 3.71 6.77 3.47 6.56C3.23 6.34 2.89 6.21 2.53 6.21C2.16 6.21 1.83 6.34 1.59 6.56C1.33 6.79 1.2 7.06 1.2 7.39C1.2 7.72 1.35 8.01 1.59 8.22C1.85 8.46 2.16 8.57 2.53 8.57ZM13.41 21.86C13.15 21.63 12.83 21.52 12.47 21.52C12.1 21.52 11.77 21.65 11.53 21.86C11.29 22.07 11.14 22.37 11.14 22.7C11.14 23.02 11.29 23.32 11.53 23.53C11.77 23.74 12.1 23.88 12.47 23.88C12.84 23.88 13.17 23.74 13.41 23.53C13.65 23.32 13.8 23.02 13.8 22.7C13.8 22.37 13.65 22.07 13.41 21.86ZM13.41 1.46C13.15 1.23 12.83 1.12 12.47 1.12C12.1 1.12 11.77 1.25 11.53 1.46C11.29 1.68 11.14 1.97 11.14 2.3C11.14 2.62 11.29 2.92 11.53 3.13C11.79 3.36 12.1 3.48 12.47 3.48C12.84 3.48 13.17 3.34 13.41 3.13C13.67 2.9 13.8 2.62 13.8 2.3C13.8 1.97 13.65 1.68 13.41 1.46ZM23.4 16.76C23.14 16.53 22.83 16.41 22.46 16.41C22.09 16.41 21.76 16.54 21.52 16.76C21.26 16.99 21.13 17.26 21.13 17.59C21.13 17.92 21.28 18.21 21.52 18.42C21.78 18.65 22.09 18.77 22.46 18.77C22.83 18.77 23.16 18.64 23.4 18.42C23.66 18.19 23.79 17.92 23.79 17.59C23.79 17.26 23.64 16.97 23.4 16.76ZM3.47 16.76C3.23 16.54 2.89 16.41 2.53 16.41C2.16 16.41 1.83 16.54 1.59 16.76C1.33 16.99 1.2 17.26 1.2 17.59C1.2 17.92 1.35 18.21 1.59 18.42C1.83 18.64 2.16 18.77 2.53 18.77C2.89 18.77 3.23 18.64 3.47 18.42C3.73 18.19 3.86 17.92 3.86 17.59C3.85 17.26 3.72 16.99 3.47 16.76ZM21.28 7.92C21.3 7.94 21.31 7.96 21.32 7.98C21.34 8 21.34 8.02 21.35 8.04C21.4 8.1 21.46 8.17 21.52 8.22C21.78 8.45 22.09 8.57 22.46 8.57C22.83 8.57 23.16 8.44 23.4 8.22C23.66 7.99 23.79 7.72 23.79 7.39C23.79 7.06 23.64 6.77 23.4 6.56C23.14 6.33 22.83 6.21 22.46 6.21C22.09 6.21 21.76 6.34 21.52 6.56C21.26 6.79 21.13 7.06 21.13 7.39C21.13 7.58 21.19 7.76 21.28 7.92ZM8.29 14.46C8.34 14.51 8.37 14.57 8.38 14.63L12.15 16.6L12.15 12.71L8.29 10.67L8.29 14.46ZM16.55 10.73L12.81 12.72L12.81 16.6L16.55 14.64L16.55 10.73ZM12.46 8.31L8.81 10.25L12.48 12.21L16.05 10.29L12.46 8.31Z" fill="#0263E6" fill-opacity="1.000000" fill-rule="evenodd"/>
	<path id="path" d="M12.11 7.84L12.11 4.07C11.63 4 11.23 3.79 10.91 3.45L4.44 6.78C4.51 6.97 4.55 7.18 4.55 7.39C4.55 7.57 4.53 7.74 4.47 7.91L8.07 9.84L12.11 7.84ZM10.44 2.3C10.44 1.8 10.67 1.35 11.03 1.02C11.4 0.7 11.91 0.5 12.47 0.5C13.03 0.5 13.54 0.7 13.91 1.02C14.3 1.37 14.5 1.8 14.5 2.3C14.5 2.52 14.46 2.73 14.38 2.92L20.88 6.26C20.93 6.21 20.98 6.16 21.03 6.12C21.42 5.76 21.9 5.59 22.46 5.59C23.03 5.59 23.53 5.79 23.9 6.12C24.3 6.47 24.5 6.89 24.5 7.39C24.5 7.89 24.27 8.34 23.9 8.67C23.58 8.95 23.19 9.12 22.73 9.18L22.73 15.8C23.19 15.85 23.59 16.04 23.9 16.31C24.27 16.64 24.5 17.09 24.5 17.59C24.5 17.83 24.44 18.06 24.34 18.28C24.24 18.5 24.09 18.69 23.9 18.86C23.71 19.03 23.49 19.16 23.24 19.25C22.99 19.34 22.73 19.39 22.46 19.39C21.82 19.39 21.3 19.17 20.89 18.73L14.38 22.07C14.45 22.26 14.5 22.47 14.5 22.69C14.5 23.19 14.27 23.64 13.9 23.97C13.51 24.32 13.03 24.5 12.47 24.5C11.91 24.5 11.4 24.29 11.03 23.97C10.66 23.64 10.44 23.19 10.44 22.69C10.44 22.47 10.48 22.25 10.57 22.06L4.09 18.73C3.69 19.17 3.16 19.39 2.52 19.39C1.96 19.39 1.45 19.19 1.09 18.86C0.72 18.54 0.5 18.09 0.5 17.59C0.5 17.09 0.72 16.64 1.09 16.31C1.41 16.03 1.8 15.86 2.24 15.8L2.24 9.18C1.79 9.12 1.41 8.95 1.09 8.66C0.69 8.31 0.49 7.89 0.5 7.39C0.5 6.89 0.72 6.44 1.09 6.11C1.49 5.76 1.96 5.59 2.53 5.59C3.17 5.59 3.7 5.81 4.1 6.25L10.57 2.93C10.48 2.73 10.44 2.52 10.44 2.3ZM12.82 4.07L12.82 7.84L16.85 9.91L20.56 8.01C20.47 7.82 20.43 7.61 20.43 7.39C20.43 7.18 20.47 6.97 20.55 6.79L14.04 3.44C13.72 3.79 13.31 4 12.82 4.07ZM21.03 8.67C20.99 8.63 20.95 8.59 20.91 8.55L17.21 10.45L17.21 14.51L20.92 16.41C20.96 16.38 20.99 16.35 21.03 16.31C21.33 16.05 21.69 15.88 22.11 15.81L22.11 9.17C21.69 9.1 21.33 8.93 21.03 8.67ZM20.43 17.59C20.43 17.36 20.48 17.15 20.57 16.95L16.97 15.1L12.82 17.25L12.82 20.92C13.31 20.99 13.72 21.2 14.04 21.55L20.55 18.2C20.47 18.01 20.43 17.81 20.43 17.59ZM12.11 20.92L12.11 17.23L7.94 15.08L4.4 16.9C4.5 17.11 4.56 17.34 4.56 17.59C4.56 17.81 4.51 18.02 4.43 18.21L10.91 21.54C11.23 21.2 11.63 21 12.11 20.92ZM3.96 16.31C3.98 16.33 4 16.35 4.02 16.37L7.63 14.53L7.63 10.33L4.16 8.46C4.1 8.54 4.03 8.6 3.96 8.67C3.65 8.94 3.29 9.1 2.86 9.17L2.86 15.81C3.29 15.87 3.67 16.05 3.96 16.31ZM2.55 8.57C2.9 8.56 3.22 8.44 3.47 8.22C3.73 7.99 3.86 7.72 3.86 7.39C3.86 7.06 3.71 6.77 3.47 6.56C3.23 6.34 2.89 6.21 2.53 6.21C2.16 6.21 1.83 6.34 1.59 6.56C1.33 6.79 1.2 7.06 1.2 7.39C1.2 7.72 1.35 8.01 1.59 8.22C1.85 8.46 2.16 8.57 2.53 8.57C2.54 8.57 2.55 8.57 2.55 8.57ZM12.47 21.52C12.1 21.52 11.77 21.65 11.53 21.86C11.29 22.07 11.14 22.37 11.14 22.7C11.14 23.02 11.29 23.32 11.53 23.53C11.77 23.74 12.1 23.88 12.47 23.88C12.84 23.88 13.17 23.74 13.41 23.53C13.65 23.32 13.8 23.02 13.8 22.7C13.8 22.37 13.65 22.07 13.41 21.86C13.15 21.63 12.83 21.52 12.47 21.52ZM12.47 1.12C12.1 1.12 11.77 1.25 11.53 1.46C11.29 1.68 11.14 1.97 11.14 2.3C11.14 2.62 11.29 2.92 11.53 3.13C11.79 3.36 12.1 3.48 12.47 3.48C12.84 3.48 13.17 3.34 13.41 3.13C13.67 2.9 13.8 2.62 13.8 2.3C13.8 1.97 13.65 1.68 13.41 1.46C13.15 1.23 12.83 1.12 12.47 1.12ZM22.46 16.41C22.09 16.41 21.76 16.54 21.52 16.76C21.26 16.99 21.13 17.26 21.13 17.59C21.13 17.92 21.28 18.21 21.52 18.42C21.78 18.65 22.09 18.77 22.46 18.77C22.83 18.77 23.16 18.64 23.4 18.42C23.66 18.19 23.79 17.92 23.79 17.59C23.79 17.26 23.64 16.97 23.4 16.76C23.14 16.53 22.83 16.41 22.46 16.41ZM2.53 16.41C2.16 16.41 1.83 16.54 1.59 16.76C1.33 16.99 1.2 17.26 1.2 17.59C1.2 17.92 1.35 18.21 1.59 18.42C1.83 18.64 2.16 18.77 2.53 18.77C2.89 18.77 3.23 18.64 3.47 18.42C3.73 18.19 3.86 17.92 3.86 17.59C3.85 17.26 3.72 16.99 3.47 16.76C3.23 16.54 2.89 16.41 2.53 16.41ZM21.32 7.98C21.34 8 21.34 8.02 21.35 8.04C21.4 8.1 21.46 8.17 21.52 8.22C21.78 8.45 22.09 8.57 22.46 8.57C22.83 8.57 23.16 8.44 23.4 8.22C23.66 7.99 23.79 7.72 23.79 7.39C23.79 7.06 23.64 6.77 23.4 6.56C23.14 6.33 22.83 6.21 22.46 6.21C22.09 6.21 21.76 6.34 21.52 6.56C21.26 6.79 21.13 7.06 21.13 7.39C21.13 7.58 21.19 7.76 21.28 7.92C21.3 7.94 21.31 7.96 21.32 7.98ZM8.38 14.63L12.15 16.6L12.15 12.71L8.29 10.67L8.29 14.46C8.34 14.51 8.37 14.57 8.38 14.63ZM12.81 12.72L12.81 16.6L16.55 14.64L16.55 10.73L12.81 12.72ZM8.81 10.25L12.48 12.21L16.05 10.29L12.46 8.31L8.81 10.25Z" stroke="#0263E6" stroke-opacity="1.000000" stroke-width="1.000000"/>
</svg>
