<svg width="223.000000" height="50.000000" viewBox="0 0 223 50" fill="none" xmlns="http://www.w3.org/2000/svg" xmlns:xlink="http://www.w3.org/1999/xlink">
	<desc>
			Created with Pixso.
	</desc>
	<defs/>
	<rect id="фрейм 4" width="223.000000" height="50.000000" fill="#FFFFFF" fill-opacity="0"/>
	<rect id="Прямоугольник 3" rx="7.000000" width="223.000000" height="50.000000" fill="#DEE6F0" fill-opacity="0.500000"/>
	<path id="Crypto" d="M61.63 13.15C63.57 13.15 65.06 14.27 65.33 16.21L63.73 16.21C63.55 15.17 62.72 14.57 61.66 14.57C60.23 14.57 59.22 15.66 59.22 17.63C59.22 19.63 60.24 20.69 61.65 20.69C62.7 20.69 63.53 20.12 63.73 19.1L65.33 19.11C65.08 20.77 63.71 22.12 61.63 22.12C59.33 22.12 57.63 20.45 57.63 17.63C57.63 14.81 59.35 13.15 61.63 13.15ZM88.06 15.45L89.35 15.45L89.35 16.64L88.06 16.64L88.06 20.03C88.06 20.65 88.37 20.79 88.76 20.79C88.95 20.79 89.13 20.75 89.21 20.73L89.47 21.93C89.3 21.99 89 22.07 88.56 22.09C87.4 22.12 86.51 21.51 86.52 20.28L86.52 16.64L85.59 16.64L85.59 15.45L86.52 15.45L86.52 13.88L88.06 13.88L88.06 15.45ZM68.25 22L66.71 22L66.71 15.45L68.21 15.45L68.21 16.54L68.27 16.54C68.51 15.78 69.14 15.36 69.89 15.36C70.06 15.36 70.3 15.37 70.44 15.4L70.44 16.82C70.31 16.77 69.99 16.73 69.73 16.73C68.88 16.73 68.25 17.32 68.25 18.15L68.25 22ZM80.13 24.45L78.59 24.45L78.59 15.45L80.1 15.45L80.1 16.53L80.19 16.53C80.43 16.06 80.91 15.37 82.06 15.37C83.58 15.37 84.77 16.55 84.77 18.73C84.77 20.89 83.61 22.11 82.07 22.11C80.94 22.11 80.44 21.44 80.19 20.96L80.13 20.96L80.13 24.45ZM96.57 18.75C96.57 20.77 95.35 22.12 93.43 22.12C91.51 22.12 90.29 20.77 90.29 18.75C90.29 16.72 91.51 15.37 93.43 15.37C95.35 15.37 96.57 16.72 96.57 18.75ZM74.9 22.79C74.53 23.83 73.84 24.45 72.63 24.45C72.21 24.45 71.84 24.37 71.63 24.29L71.99 23.08C72.66 23.28 73.11 23.23 73.4 22.48L73.53 22.13L71.16 15.45L72.79 15.45L74.3 20.39L74.37 20.39L75.88 15.45L77.52 15.45L74.9 22.79ZM91.86 18.74C91.86 19.94 92.38 20.89 93.44 20.89C94.48 20.89 95 19.94 95 18.74C95 17.54 94.48 16.59 93.44 16.59C92.38 16.59 91.86 17.54 91.86 18.74ZM81.64 16.63C80.65 16.63 80.1 17.45 80.1 18.72C80.1 19.99 80.65 20.84 81.64 20.84C82.66 20.84 83.19 19.95 83.19 18.72C83.19 17.5 82.67 16.63 81.64 16.63Z" fill="#0263E6" fill-opacity="1.000000" fill-rule="evenodd"/>
	<path id="Finance app" d="M64.78 29.07C64.78 29.42 64.47 29.7 64.1 29.7C63.74 29.7 63.43 29.42 63.43 29.07C63.43 28.72 63.74 28.43 64.1 28.43C64.47 28.43 64.78 28.72 64.78 29.07ZM58.89 36L57.79 36L57.79 28.72L62.31 28.72L62.31 29.67L58.89 29.67L58.89 31.88L61.98 31.88L61.98 32.82L58.89 32.82L58.89 36ZM68.39 31.39C67.65 31.39 67.12 31.89 67.12 32.76L67.12 36L66.06 36L66.06 30.54L67.08 30.54L67.08 31.43L67.14 31.43C67.4 30.85 67.93 30.47 68.75 30.47C69.87 30.47 70.61 31.18 70.61 32.53L70.61 36L69.55 36L69.55 32.65C69.55 31.86 69.11 31.39 68.39 31.39ZM75.23 35.25C75.03 35.66 74.52 36.11 73.62 36.11C72.58 36.11 71.78 35.53 71.78 34.45C71.78 33.21 72.83 32.95 73.87 32.82C74.85 32.71 75.25 32.72 75.25 32.33L75.25 32.31C75.25 31.69 74.89 31.33 74.21 31.33C73.49 31.33 73.1 31.7 72.94 32.09L71.94 31.86C72.3 30.87 73.21 30.47 74.19 30.47C75.06 30.47 76.31 30.79 76.31 32.37L76.31 36L75.27 36L75.27 35.25L75.23 35.25ZM80.06 31.39C79.32 31.39 78.78 31.89 78.78 32.76L78.78 36L77.72 36L77.72 30.54L78.74 30.54L78.74 31.43L78.81 31.43C79.06 30.85 79.6 30.47 80.42 30.47C81.53 30.47 82.28 31.18 82.28 32.53L82.28 36L81.21 36L81.21 32.65C81.21 31.86 80.78 31.39 80.06 31.39ZM88.23 34.27C88.12 35.33 87.28 36.1 85.99 36.1C84.41 36.1 83.45 34.94 83.45 33.29C83.45 31.63 84.44 30.47 85.98 30.47C87.22 30.47 88.12 31.2 88.23 32.3L87.2 32.3C87.09 31.79 86.68 31.36 86 31.36C85.11 31.36 84.52 32.1 84.52 33.27C84.52 34.46 85.1 35.21 86 35.21C86.61 35.21 87.07 34.86 87.2 34.27L88.23 34.27ZM94 34.63C93.76 35.52 92.92 36.1 91.72 36.1C90.12 36.1 89.13 35 89.13 33.3C89.13 31.63 90.13 30.47 91.65 30.47C92.89 30.47 94.07 31.24 94.07 33.21L94.07 33.59L90.19 33.59C90.22 34.64 90.83 35.23 91.74 35.23C92.34 35.23 92.8 34.96 92.99 34.45L94 34.63ZM101.1 35.25C100.89 35.66 100.39 36.11 99.49 36.11C98.45 36.11 97.64 35.53 97.64 34.45C97.64 33.21 98.7 32.95 99.73 32.82C100.71 32.71 101.11 32.72 101.11 32.33L101.11 32.31C101.11 31.69 100.76 31.33 100.07 31.33C99.36 31.33 98.96 31.7 98.81 32.09L97.81 31.86C98.16 30.87 99.07 30.47 100.06 30.47C100.93 30.47 102.18 30.79 102.18 32.37L102.18 36L101.14 36L101.14 35.25L101.1 35.25ZM104.65 38.04L103.59 38.04L103.59 30.54L104.63 30.54L104.63 31.42L104.71 31.42C104.9 31.09 105.27 30.47 106.28 30.47C107.6 30.47 108.57 31.51 108.57 33.28C108.57 35.04 107.61 36.1 106.29 36.1C105.3 36.1 104.91 35.49 104.71 35.15L104.65 35.15L104.65 38.04ZM110.82 38.04L109.76 38.04L109.76 30.54L110.8 30.54L110.8 31.42L110.89 31.42C111.08 31.09 111.44 30.47 112.45 30.47C113.77 30.47 114.74 31.51 114.74 33.28C114.74 35.04 113.78 36.1 112.46 36.1C111.47 36.1 111.08 35.49 110.89 35.15L110.82 35.15L110.82 38.04ZM64.63 36L63.57 36L63.57 30.54L64.63 30.54L64.63 36ZM91.66 31.35C90.79 31.35 90.23 32.02 90.19 32.79L93.03 32.79C93.02 31.96 92.48 31.35 91.66 31.35ZM106.05 31.37C105.13 31.37 104.63 32.13 104.63 33.27C104.63 34.42 105.14 35.2 106.05 35.2C107 35.2 107.5 34.36 107.5 33.27C107.5 32.18 107.02 31.37 106.05 31.37ZM112.23 31.37C111.3 31.37 110.8 32.13 110.8 33.27C110.8 34.42 111.31 35.2 112.23 35.2C113.17 35.2 113.67 34.36 113.67 33.27C113.67 32.18 113.19 31.37 112.23 31.37ZM72.82 34.47C72.82 34.99 73.25 35.26 73.85 35.26C74.73 35.26 75.25 34.67 75.25 34.03L75.25 33.32C75.1 33.48 74.28 33.57 73.93 33.61C73.32 33.7 72.82 33.9 72.82 34.47ZM98.68 34.47C98.68 34.99 99.11 35.26 99.71 35.26C100.6 35.26 101.11 34.67 101.11 34.03L101.11 33.32C100.96 33.48 100.15 33.57 99.8 33.61C99.19 33.7 98.68 33.9 98.68 34.47Z" fill="#0263E6" fill-opacity="1.000000" fill-rule="evenodd"/>
	<rect id="Прямоугольник 4" x="12.000000" y="7.000000" rx="10.000000" width="35.000008" height="35.000000" fill="#BAD3F4" fill-opacity="1.000000"/>
	<path id="path" d="M25.28 22.12L29.16 19.95L29.16 15.87C28.7 15.79 28.31 15.56 28.01 15.2L21.78 18.8C21.86 19.01 21.9 19.23 21.9 19.46C21.9 19.66 21.87 19.84 21.82 20.02L25.28 22.12ZM27.68 14.63C27.6 14.41 27.55 14.18 27.55 13.95C27.55 13.41 27.77 12.92 28.12 12.57C28.48 12.21 28.97 12 29.51 12C30.05 12 30.53 12.21 30.89 12.57C31.27 12.95 31.46 13.41 31.46 13.95C31.46 14.18 31.42 14.41 31.34 14.62L37.59 18.24C37.64 18.18 37.68 18.13 37.73 18.08C38.11 17.7 38.57 17.51 39.11 17.51C39.65 17.51 40.14 17.73 40.49 18.08C40.88 18.46 41.07 18.92 41.07 19.46C41.07 20 40.85 20.49 40.49 20.84C40.18 21.16 39.81 21.34 39.37 21.4L39.37 28.57C39.81 28.63 40.2 28.83 40.49 29.12C40.85 29.48 41.07 29.97 41.07 30.5C41.07 30.76 41.02 31.01 40.92 31.25C40.82 31.49 40.68 31.7 40.49 31.88C40.31 32.07 40.1 32.21 39.86 32.31C39.62 32.41 39.37 32.46 39.11 32.46C38.5 32.46 37.99 32.22 37.6 31.74L31.34 35.36C31.41 35.57 31.46 35.8 31.46 36.03C31.46 36.57 31.24 37.06 30.89 37.41C30.5 37.8 30.04 37.99 29.5 37.99C28.96 37.99 28.48 37.77 28.12 37.41C27.77 37.06 27.55 36.57 27.55 36.03C27.55 35.79 27.6 35.56 27.68 35.35L21.45 31.75C21.06 32.22 20.56 32.46 19.95 32.46C19.41 32.46 18.92 32.24 18.56 31.89C18.21 31.53 18 31.04 18 30.51C18 29.97 18.21 29.48 18.57 29.13C18.87 28.82 19.24 28.63 19.68 28.57L19.68 21.4C19.24 21.34 18.87 21.15 18.57 20.84C18.18 20.46 17.99 20 18 19.46C18 18.92 18.21 18.43 18.57 18.08C18.95 17.7 19.41 17.51 19.95 17.51C20.57 17.51 21.07 17.75 21.46 18.23L27.68 14.63ZM31.01 15.19C30.71 15.56 30.31 15.79 29.84 15.87L29.84 19.95L33.72 22.19L37.28 20.13C37.2 19.93 37.16 19.7 37.16 19.46C37.16 19.23 37.2 19.01 37.27 18.81L31.01 15.19ZM38.77 21.38C38.37 21.31 38.02 21.13 37.73 20.84C37.69 20.8 37.65 20.76 37.62 20.72L34.06 22.77L34.06 27.17L37.63 29.23C37.66 29.2 37.7 29.16 37.73 29.13C38.02 28.84 38.37 28.66 38.77 28.58L38.77 21.38ZM37.28 31.17C37.2 30.96 37.16 30.74 37.16 30.51C37.16 30.26 37.21 30.03 37.29 29.81L33.83 27.81L29.84 30.14L29.84 34.11C30.31 34.19 30.71 34.42 31.01 34.8L37.28 31.17ZM28.01 34.78C28.31 34.42 28.7 34.19 29.16 34.11L29.16 30.12L25.15 27.79L21.75 29.76C21.84 29.99 21.9 30.24 21.9 30.51C21.9 30.74 21.86 30.97 21.78 31.18L28.01 34.78ZM20.27 28.58C20.68 28.65 21.05 28.85 21.33 29.13C21.35 29.15 21.37 29.17 21.39 29.19L24.85 27.19L24.85 22.65L21.51 20.63C21.46 20.7 21.39 20.78 21.33 20.84C21.03 21.14 20.68 21.32 20.27 21.39L20.27 28.58ZM19.95 20.74C19.96 20.74 19.97 20.74 19.97 20.74C20.31 20.73 20.61 20.6 20.85 20.37C21.1 20.12 21.23 19.81 21.23 19.46C21.23 19.11 21.08 18.79 20.85 18.56C20.62 18.33 20.3 18.18 19.95 18.18C19.59 18.18 19.27 18.33 19.04 18.56C18.79 18.81 18.67 19.11 18.67 19.46C18.67 19.82 18.81 20.13 19.04 20.37C19.29 20.62 19.6 20.74 19.95 20.74ZM30.41 35.13C30.16 34.88 29.86 34.76 29.5 34.76C29.15 34.76 28.83 34.9 28.6 35.13C28.37 35.36 28.23 35.68 28.23 36.04C28.23 36.39 28.37 36.71 28.6 36.94C28.83 37.17 29.15 37.31 29.5 37.31C29.86 37.31 30.18 37.17 30.41 36.94C30.64 36.71 30.78 36.39 30.78 36.04C30.78 35.68 30.64 35.36 30.41 35.13ZM30.41 13.04C30.16 12.79 29.86 12.67 29.5 12.67C29.15 12.67 28.83 12.81 28.6 13.04C28.37 13.27 28.23 13.59 28.23 13.95C28.23 14.3 28.37 14.62 28.6 14.85C28.85 15.1 29.15 15.23 29.5 15.23C29.86 15.23 30.18 15.08 30.41 14.85C30.66 14.6 30.78 14.3 30.78 13.95C30.78 13.59 30.64 13.27 30.41 13.04ZM40.01 29.6C39.77 29.35 39.46 29.23 39.11 29.23C38.76 29.23 38.44 29.37 38.21 29.6C37.96 29.85 37.83 30.15 37.83 30.51C37.83 30.86 37.98 31.18 38.21 31.41C38.46 31.66 38.76 31.79 39.11 31.79C39.46 31.79 39.78 31.64 40.01 31.41C40.26 31.16 40.39 30.86 40.39 30.51C40.39 30.15 40.25 29.84 40.01 29.6ZM20.85 29.6C20.62 29.37 20.3 29.23 19.95 29.23C19.59 29.23 19.27 29.37 19.04 29.6C18.79 29.85 18.67 30.15 18.67 30.51C18.67 30.86 18.81 31.18 19.04 31.41C19.27 31.64 19.59 31.79 19.95 31.79C20.3 31.79 20.62 31.64 20.85 31.41C21.1 31.16 21.23 30.86 21.23 30.51C21.22 30.16 21.1 29.85 20.85 29.6ZM37.97 20.04C37.99 20.06 38 20.08 38.02 20.1C38.03 20.12 38.04 20.14 38.05 20.16C38.09 20.24 38.15 20.3 38.21 20.37C38.46 20.61 38.76 20.74 39.11 20.74C39.46 20.74 39.78 20.6 40.01 20.37C40.26 20.12 40.39 19.81 40.39 19.46C40.39 19.11 40.25 18.79 40.01 18.56C39.77 18.31 39.46 18.18 39.11 18.18C38.76 18.18 38.44 18.33 38.21 18.56C37.96 18.81 37.83 19.11 37.83 19.46C37.84 19.67 37.89 19.87 37.97 20.04ZM25.49 27.12C25.53 27.17 25.56 27.23 25.58 27.3L29.2 29.43L29.2 25.23L25.49 23.02L25.49 27.12ZM33.43 23.07L29.83 25.23L29.83 29.44L33.43 27.31L33.43 23.07ZM29.5 20.45L25.99 22.55L29.52 24.68L32.95 22.6L29.5 20.45Z" fill="#0263E6" fill-opacity="1.000000" fill-rule="evenodd"/>
	<path id="path" d="M29.16 19.95L29.16 15.87C28.7 15.79 28.31 15.56 28.01 15.2L21.78 18.8C21.86 19.01 21.9 19.23 21.9 19.46C21.9 19.66 21.87 19.84 21.82 20.02L25.28 22.12L29.16 19.95ZM27.55 13.95C27.55 13.41 27.77 12.92 28.12 12.57C28.48 12.21 28.97 12 29.51 12C30.05 12 30.53 12.21 30.89 12.57C31.27 12.95 31.46 13.41 31.46 13.95C31.46 14.18 31.42 14.41 31.34 14.62L37.59 18.24C37.64 18.18 37.68 18.13 37.73 18.08C38.11 17.7 38.57 17.51 39.11 17.51C39.65 17.51 40.14 17.73 40.49 18.08C40.88 18.46 41.07 18.92 41.07 19.46C41.07 20 40.85 20.49 40.49 20.84C40.18 21.16 39.81 21.34 39.37 21.4L39.37 28.57C39.81 28.63 40.2 28.83 40.49 29.12C40.85 29.48 41.07 29.97 41.07 30.5C41.07 30.76 41.02 31.01 40.92 31.25C40.82 31.49 40.68 31.7 40.49 31.88C40.31 32.07 40.1 32.21 39.86 32.31C39.62 32.41 39.37 32.46 39.11 32.46C38.5 32.46 37.99 32.22 37.6 31.74L31.34 35.36C31.41 35.57 31.46 35.8 31.46 36.03C31.46 36.57 31.24 37.06 30.89 37.41C30.5 37.8 30.04 37.99 29.5 37.99C28.96 37.99 28.48 37.77 28.12 37.41C27.77 37.06 27.55 36.57 27.55 36.03C27.55 35.79 27.6 35.56 27.68 35.35L21.45 31.75C21.06 32.22 20.56 32.46 19.95 32.46C19.41 32.46 18.92 32.24 18.56 31.89C18.21 31.53 18 31.04 18 30.51C18 29.97 18.21 29.48 18.57 29.13C18.87 28.82 19.24 28.63 19.68 28.57L19.68 21.4C19.24 21.34 18.87 21.15 18.57 20.84C18.18 20.46 17.99 20 18 19.46C18 18.92 18.21 18.43 18.57 18.08C18.95 17.7 19.41 17.51 19.95 17.51C20.57 17.51 21.07 17.75 21.46 18.23L27.68 14.63C27.6 14.41 27.55 14.18 27.55 13.95ZM29.84 15.87L29.84 19.95L33.72 22.19L37.28 20.13C37.2 19.93 37.16 19.7 37.16 19.46C37.16 19.23 37.2 19.01 37.27 18.81L31.01 15.19C30.71 15.56 30.31 15.79 29.84 15.87ZM37.73 20.84C37.69 20.8 37.65 20.76 37.62 20.72L34.06 22.77L34.06 27.17L37.63 29.23C37.66 29.2 37.7 29.16 37.73 29.13C38.02 28.84 38.37 28.66 38.77 28.58L38.77 21.38C38.37 21.31 38.02 21.13 37.73 20.84ZM37.16 30.51C37.16 30.26 37.21 30.03 37.29 29.81L33.83 27.81L29.84 30.14L29.84 34.11C30.31 34.19 30.71 34.42 31.01 34.8L37.28 31.17C37.2 30.96 37.16 30.74 37.16 30.51ZM29.16 34.11L29.16 30.12L25.15 27.79L21.75 29.76C21.84 29.99 21.9 30.24 21.9 30.51C21.9 30.74 21.86 30.97 21.78 31.18L28.01 34.78C28.31 34.42 28.7 34.19 29.16 34.11ZM21.33 29.13C21.35 29.15 21.37 29.17 21.39 29.19L24.85 27.19L24.85 22.65L21.51 20.63C21.46 20.7 21.39 20.78 21.33 20.84C21.03 21.14 20.68 21.32 20.27 21.39L20.27 28.58C20.68 28.65 21.05 28.85 21.33 29.13ZM19.97 20.74C20.31 20.73 20.61 20.6 20.85 20.37C21.1 20.12 21.23 19.81 21.23 19.46C21.23 19.11 21.08 18.79 20.85 18.56C20.62 18.33 20.3 18.18 19.95 18.18C19.59 18.18 19.27 18.33 19.04 18.56C18.79 18.81 18.67 19.11 18.67 19.46C18.67 19.82 18.81 20.13 19.04 20.37C19.29 20.62 19.6 20.74 19.95 20.74C19.96 20.74 19.97 20.74 19.97 20.74ZM29.5 34.76C29.15 34.76 28.83 34.9 28.6 35.13C28.37 35.36 28.23 35.68 28.23 36.04C28.23 36.39 28.37 36.71 28.6 36.94C28.83 37.17 29.15 37.31 29.5 37.31C29.86 37.31 30.18 37.17 30.41 36.94C30.64 36.71 30.78 36.39 30.78 36.04C30.78 35.68 30.64 35.36 30.41 35.13C30.16 34.88 29.86 34.76 29.5 34.76ZM29.5 12.67C29.15 12.67 28.83 12.81 28.6 13.04C28.37 13.27 28.23 13.59 28.23 13.95C28.23 14.3 28.37 14.62 28.6 14.85C28.85 15.1 29.15 15.23 29.5 15.23C29.86 15.23 30.18 15.08 30.41 14.85C30.66 14.6 30.78 14.3 30.78 13.95C30.78 13.59 30.64 13.27 30.41 13.04C30.16 12.79 29.86 12.67 29.5 12.67ZM39.11 29.23C38.76 29.23 38.44 29.37 38.21 29.6C37.96 29.85 37.83 30.15 37.83 30.51C37.83 30.86 37.98 31.18 38.21 31.41C38.46 31.66 38.76 31.79 39.11 31.79C39.46 31.79 39.78 31.64 40.01 31.41C40.26 31.16 40.39 30.86 40.39 30.51C40.39 30.15 40.25 29.84 40.01 29.6C39.77 29.35 39.46 29.23 39.11 29.23ZM19.95 29.23C19.59 29.23 19.27 29.37 19.04 29.6C18.79 29.85 18.67 30.15 18.67 30.51C18.67 30.86 18.81 31.18 19.04 31.41C19.27 31.64 19.59 31.79 19.95 31.79C20.3 31.79 20.62 31.64 20.85 31.41C21.1 31.16 21.23 30.86 21.23 30.51C21.22 30.16 21.1 29.85 20.85 29.6C20.62 29.37 20.3 29.23 19.95 29.23ZM38.02 20.1C38.03 20.12 38.04 20.14 38.05 20.16C38.09 20.24 38.15 20.3 38.21 20.37C38.46 20.61 38.76 20.74 39.11 20.74C39.46 20.74 39.78 20.6 40.01 20.37C40.26 20.12 40.39 19.81 40.39 19.46C40.39 19.11 40.25 18.79 40.01 18.56C39.77 18.31 39.46 18.18 39.11 18.18C38.76 18.18 38.44 18.33 38.21 18.56C37.96 18.81 37.83 19.11 37.83 19.46C37.84 19.67 37.89 19.87 37.97 20.04C37.99 20.06 38 20.08 38.02 20.1ZM25.58 27.3L29.2 29.43L29.2 25.23L25.49 23.02L25.49 27.12C25.53 27.17 25.56 27.23 25.58 27.3ZM29.83 25.23L29.83 29.44L33.43 27.31L33.43 23.07L29.83 25.23ZM25.99 22.55L29.52 24.68L32.95 22.6L29.5 20.45L25.99 22.55Z" stroke="#0263E6" stroke-opacity="1.000000" stroke-width="1.000000"/>
</svg>
