<svg viewBox="0 0 145 175" xmlns="http://www.w3.org/2000/svg" xmlns:xlink="http://www.w3.org/1999/xlink" width="145.000000" height="175.000000" fill="none">
	<defs>
		<filter id="pixso_custom_mask_type_luminance">
			<feColorMatrix type="matrix" values="1 0 0 0 0 0 1 0 0 0 0 0 1 0 0 0 0 0 1 0 " />
		</filter>
		<clipPath id="clipPath_0">
			<rect width="78.124023" height="78.123993" x="26.577148" y="10.287994" fill="rgb(255,255,255)" />
		</clipPath>
	</defs>
	<mask id="mask_1" width="82.517998" height="64.299004" x="24.647949" y="0.000000" maskUnits="userSpaceOnUse">
		<g filter="url(#pixso_custom_mask_type_luminance)">
			<g id="a">
				<path id="Форма 79" d="M24.6479 0L107.166 0L107.166 64.299L24.6479 64.299L24.6479 0Z" fill="rgb(196,196,196)" fill-rule="nonzero" />
			</g>
		</g>
	</mask>
	<rect id="wallet-icon 1" width="145.000000" height="165.000000" x="0.000000" y="10.000000" />
	<path id="Форма 76" d="M105.204 174.681L40.176 174.681C25.674 174.681 18.423 174.681 12.944 171.724C8.61895 169.391 5.28962 166.062 2.956 161.737C0 156.258 1.51852e-08 149.007 1.51852e-08 134.504L1.51852e-08 89.866C-0.000160387 83.9518 1.21436 78.2986 3.64356 72.9063C6.07276 67.514 9.50224 62.8586 13.932 58.94C14.0042 60.3852 14.342 61.7654 14.9454 63.0806C15.5488 64.3958 16.3747 65.5521 17.423 66.5495C18.4714 67.5469 19.6674 68.3141 21.011 68.8512C22.3547 69.3883 23.75 69.6569 25.197 69.657L94.853 69.657C109.355 69.657 116.606 69.657 122.085 72.613C126.41 74.9468 129.739 78.2762 132.073 82.601C134.241 86.619 134.819 91.59 134.973 99.674C134.043 99.664 132.999 99.664 131.814 99.664L106.094 99.664C93.665 99.664 83.589 109.739 83.589 122.168C83.589 134.597 93.665 144.673 106.094 144.673L131.814 144.673C133.023 144.673 134.085 144.673 135.029 144.662L135.029 144.855C135.029 149.664 135.029 152.069 134.694 154.078C134.272 156.613 133.474 159.022 132.298 161.307C131.123 163.592 129.627 165.643 127.81 167.46C125.993 169.277 123.942 170.773 121.657 171.949C119.372 173.125 116.963 173.923 114.428 174.345C112.418 174.68 110.014 174.68 105.204 174.68L105.204 174.681Z" fill="rgb(104,196,129)" fill-rule="nonzero" />
	<path id="Слияние" d="M107.166 106.094C98.2881 106.094 91.0908 113.291 91.0908 122.169C91.0908 131.047 98.2881 138.244 107.166 138.244L131.278 138.244C133.768 138.244 135.013 138.244 136.048 138.038C138.173 137.615 140.002 136.638 141.535 135.105C143.067 133.573 144.045 131.744 144.468 129.618C144.674 128.583 144.674 127.338 144.674 124.848L144.674 119.49C144.674 117 144.674 115.755 144.468 114.72C144.045 112.595 143.067 110.766 141.535 109.233C140.002 107.701 138.173 106.723 136.048 106.3C135.013 106.094 133.768 106.094 131.278 106.094L107.166 106.094L107.166 106.094ZM107.166 127.528C107.876 127.528 108.56 127.392 109.217 127.12C109.873 126.848 110.453 126.461 110.955 125.959C111.458 125.456 111.845 124.877 112.117 124.22C112.389 123.564 112.524 122.88 112.524 122.17C112.524 121.459 112.389 120.775 112.117 120.119C111.845 119.462 111.458 118.883 110.955 118.38C110.453 117.878 109.873 117.491 109.217 117.219C108.56 116.947 107.876 116.811 107.166 116.811C106.456 116.811 105.772 116.947 105.115 117.219C104.459 117.491 103.879 117.878 103.377 118.38C102.875 118.883 102.487 119.462 102.215 120.119C101.943 120.775 101.808 121.459 101.808 122.17C101.808 122.88 101.943 123.564 102.215 124.22C102.487 124.877 102.875 125.456 103.377 125.959C103.879 126.461 104.459 126.848 105.115 127.12C105.772 127.392 106.456 127.528 107.166 127.528ZM37.813 49.297C25.0132 49.302 18.3848 49.422 13.2861 52.071C8.6748 54.4668 5.17139 57.9704 2.77588 62.582C0 67.924 0 74.942 0 88.98L0 114.635C0 128.672 0 135.691 2.7749 141.033C4.70312 144.745 7.40137 147.77 10.8701 150.108C10.7168 147.699 10.7168 144.721 10.7168 140.88L10.7168 84.168C10.7168 75.624 10.7168 71.352 12.4058 68.1C13.8643 65.2928 15.9971 63.1602 18.8042 61.702C22.0562 60.012 26.3281 60.012 34.8721 60.012L37.812 60.012L37.812 49.298L37.813 49.297ZM93.709 60.013L110.874 60.013C117.717 60.013 121.819 60.013 124.852 60.88C122.474 57.0756 119.294 54.1393 115.313 52.071C110.617 49.631 104.625 49.337 93.709 49.301L93.709 60.013Z" fill="rgb(104,196,129)" fill-rule="evenodd" />
	<g mask="url(#mask_1)">
		<g id="Сочетание 71">
			<g id="фрейм 6" customFrame="url(#clipPath_0)">
				<rect id="фрейм 6" width="78.124023" height="78.123993" x="26.577148" y="10.287994" />
				<g id="Сочетание 70">
					<path id="Слияние" d="M65.6401 88.412C87.2134 88.412 104.701 70.923 104.701 49.35C104.701 27.776 87.2134 10.288 65.6392 10.288C44.0659 10.288 26.5771 27.776 26.5771 49.35C26.5771 70.923 44.0659 88.412 65.6392 88.412L65.6401 88.412Z" fill="rgb(255,199,0)" fill-rule="evenodd" />
				</g>
			</g>
		</g>
	</g>
</svg>
